<svg xmlns="http://www.w3.org/2000/svg" viewBox="0 0 1164 287" width="1164" height="287" fill="none"  fill-rule="evenodd"><path d="M680.095 80.655c-1.285 3.955-13.079 76.178-13.079 76.178s61.871-57.13 71.932-76.178h-58.853zm173.29-.003c-5.3 22.565-32.696 163.839-32.696 168.916h26.157l42.505-33.121-13.079 33.121h81.741l6.539-36.433h-88.28c.854-3.186 3.383-15.599 4.482-20.611l2.001-9.108h37.267 37.267l7.263-39.834h-75.201c.693-2.276 3.428-12.288 4.514-17.299l1.968-9.108h42.172 42.172l3.541-16.723c1.948-9.198 3.541-18.14 3.541-19.872l-133.874.073zm156.945-.073c-2.05 10.324-6.54 34.988-6.54 36.505h35.96l26.16-36.433-55.58-.073zm49.04 36.505l-29.43 132.483h49.05l26.16-132.483h52.31l6.54-36.433h-71.93l-32.7 36.433zM778.184 80.652c-5.601 4.958-36.418 31.524-42.506 36.436l10.177-.092c20.337.238 25.608 2.696 25.608 11.937 0 12.079-11.683 18.05-35.319 18.05h-20.785l2.214-10.764c2.109-10.277 1.079-9.638-22.734 14.076l-37.632 42.968-9.809 56.305h58.854c55.858-1.053 65.296.818 78.289-5.312 19.621-9.264 29.587-20.923 31.735-37.129 2.224-16.815-.641-28.646-8.985-37.098-6.5-6.585-9.49-6.575-9.49-6.575 10.228-10.36 26.157-20.979 26.157-36.43 0-13.251 0-19.873-9.809-33.121s-35.965-13.251-35.965-13.251zM764.27 187.391c5.813 5.889 4.773 14.093-2.655 20.902-4.833 4.432-13.612 6.446-33.06 7.585l-25.573.569 6.539-33.12s50.442-.298 54.749 4.064z" fill="#fff"/><path d="M368.6 29.2l9.7 4.85L397.7.1l-29.1 29.1zm-38.8 14.55h9.7l9.7-4.85-4.85-4.85-14.55 9.7zm-29.1 19.4s11.047 6.501 7.765 13.125c0 0-3.992-1.556-23.831-1.281-41.549.576-75.955 21.015-93.605 55.613-7.147 14.007-8.696 21.591-8.87 43.464-.115 14.573 8.176 34.687 8.176 34.687l9.828-9.936c7.094-6.468 24.423-20.508 29.548-23.185-3.281-26.496 16.408-59.617 59.066-59.617 0 0 19.36-11.847 22.97-13.248l-9.845 13.248s1.014 1.53 9.845 9.936c9.864 9.387 9.89 15.647 9.844 29.809-.062 18.366-9.869 37.066-23.598 47.34-11.994 8.972-35.223 11.161-47.955 4.514l-10.11-5.276-20.061 39.536 15.359 8.741c35.997 10.562 83.203.049 105.891-23.579 10.579-11.013 16.569-21.595 16.569-21.595L358.9 223.2l8.374 3.841L378.3 208.65s-7.055-14.673-11.026-20.394c0 0 6.819-35.803 3.538-55.675 1.399-.873 10.889-10.483 10.889-10.483l-1.045-9.39L388 92.25c-14.599 9.294-30.314 10.522-30.314 10.522s-16.407-13.249-29.532-19.873c-.571-6.376-3.204-19.749-3.204-19.749L320.1 68l-9.7-9.7-9.7 4.85zm58.2-4.85L344.35 68l14.55 14.55h4.85l4.85-9.7-9.7-14.55zM32.811 79.587c-.906 3.186-3.619 20.949-6.563 36.433l-6.563 36.433 29.533-36.433 26.251-36.433H32.811zm23.142 56.574c-19.5 23.453-24.681 27.381-42.847 46.101L0 248.503h49.218l6.563-43.057s14.344.308 34.886-.42c40.791-1.451 60.274-16.14 72.08-30.955 9.321-11.697 11.164-24.93 11.164-38.178 0-26.497-13.125-56.306-82.035-56.306 0 0-16.423 33.121-35.923 56.574zm341.11-56.571l19.689 168.916h52.502l24.799-46.213 27.704-53.149c1.184 8.614 7.665 80.688 9.844 99.362h52.503L672.702 79.59h-45.94l-55.784 105.986L557.852 79.59h-45.939l-27.54 48.798c-15.239 28.884-26.912 56.056-28.244 53.876-2.264-27.45-9.845-62.929-9.845-62.929-3.839 2.799-14.644 10.42-19.688 13.248l-13.126 9.936c3.603-6.919 25.845-57.464 29.533-62.929h-45.94zm-278.936 43.054c6.212 5.078 6.978 10.824 5.081 21.032-2.884 15.521-14.736 22.115-39.76 22.115-15.981 0-17.823-.09-17.823-.09.889-3.186 3.585-16.719 4.756-23.095l5.104-26.586c12.016 0 32.798 0 42.642 6.624zm226.434 119.235c-2.169 2.636-26.252 16.56-26.252 16.56l-20.163 7.27v12.609l17.104 7.932 16.185-4.626 1.137-12.136 11.989-27.609z" fill="#ffdc26"/></svg>
